<svg id="Layer_1" data-name="Layer 1" xmlns="http://www.w3.org/2000/svg" viewBox="0 0 873.4 171.75"><defs><style>.cls-1{fill:#b21f3c;}.cls-2{font-size:149.39px;}.cls-2,.cls-3,.cls-4{fill:#231f20;}.cls-2,.cls-3{font-family:Georgia;}.cls-3{font-size:118.23px;}</style></defs><path class="cls-1" d="M189.82,58.26a.85.85,0,0,1,.86.86c0,5.25-.37,17.8.39,22.1,1.37,7.71,3.31,10.45,6.8,18.41,2.22,5.07,3.49,6.13,3.12,21.91-.46,19.08.08,35-.46,38.67-.24,1.63-6.22,2.31-14.88,2.54h0c-8.65-.23-14.64-.88-14.88-2.51-.53-3.64,0-19.59-.45-38.67-.37-15.79.9-16.84,3.12-21.91,3.48-8,5.42-10.71,6.79-18.41.77-4.31.6-16.89.58-22.14a.86.86,0,0,1,.87-.86Z" transform="translate(-25.33 -34.46)"/><text class="cls-2" transform="translate(0.3 126.45)">W</text><text class="cls-3" transform="translate(181.67 127.54)">necierge.com</text><path class="cls-4" d="M185.53,51.92c2.42.43,4.42.51,4.48.18l2.74-15.53a.41.41,0,0,0-.31-.45,22.49,22.49,0,0,0-3.92-1.19,24.53,24.53,0,0,0-4.15-.23A.35.35,0,0,0,184,35l-2.74,15.58c-.06.33,1.85.94,4.27,1.37Z" transform="translate(-25.33 -34.46)"/></svg>